# xmcd
#
# Track frame offsets: 
#        150
#        29941
#        72388
#        99526
#        153694
#        190594
#
# Disc length: 3175 seconds
#
# Revision: 3
# Processed by: cddbd v1.5.2PL0 Copyright (c) Steve Scherf et al.
# Submitted via: ExactAudioCopyFreeDBPlugin 1.0
#
DISCID=530c6506
DTITLE=Kauan - Tietäjän Laulu
DYEAR=2008
DGENRE=Dark Metal
TTITLE0=Вместо Слёз
TTITLE1=Kyynelten Sijaan
TTITLE2=Песнь Матери
TTITLE3=Äidin Laulu
TTITLE4=Прозрачный Цветок
TTITLE5=Orkidea
EXTD=
EXTT0=
EXTT1=
EXTT2=
EXTT3=
EXTT4=
EXTT5=
PLAYORDER=
